<?xml version="1.0" standalone="no"?><!DOCTYPE svg PUBLIC "-//W3C//DTD SVG 1.1//EN" "http://www.w3.org/Graphics/SVG/1.1/DTD/svg11.dtd"><svg class="icon" width="32px" height="32.00px" viewBox="0 0 1024 1024" version="1.1" xmlns="http://www.w3.org/2000/svg"><path d="M889.98475 855.626221H134.01525c-37.902238 0-68.724221-30.821983-68.724221-68.724221V237.098c0-37.894052 30.821983-68.724221 68.724221-68.724221h755.9695c37.902238 0 68.724221 30.830169 68.724221 68.724221v549.805024c0 37.901215-30.821983 68.723198-68.724221 68.723197zM134.01525 237.098v549.805024H890.034892l-0.050142-549.805024H134.01525z" fill="#444444" /><path d="M907.166061 443.270662H116.833939c-18.97619 0-34.362622-15.385409-34.362623-34.362622s15.385409-34.362622 34.362623-34.362622h790.332122c18.97619 0 34.362622 15.385409 34.362623 34.362622s-15.386432 34.362622-34.362623 34.362622z" fill="#444444" /><path d="M821.264623 623.676475H512.005117v51.543934c0 18.977213 15.384385 34.362622 34.362622 34.362622h240.536308c18.978237 0 34.362622-15.384385 34.362622-34.362622v-51.543934z" fill="#00D8A0" /></svg>