<?xml version="1.0" standalone="no"?><!DOCTYPE svg PUBLIC "-//W3C//DTD SVG 1.1//EN" "http://www.w3.org/Graphics/SVG/1.1/DTD/svg11.dtd"><svg t="1546514782940" class="icon" style="" viewBox="0 0 1024 1024" version="1.1" xmlns="http://www.w3.org/2000/svg" p-id="2090" xmlns:xlink="http://www.w3.org/1999/xlink" width="128" height="128"><defs><style type="text/css"></style></defs><path d="M511.99488 509.89568m-491.93984 0a491.93984 491.93984 0 1 0 983.87968 0 491.93984 491.93984 0 1 0-983.87968 0Z" fill="#F2F2F2" p-id="2091"></path><path d="M403.33824 990.2848a493.312 493.312 0 0 0 105.90208 11.55584c24.82176 0 49.2032-1.87904 73.04192-5.4272v-180.7616h-178.944v174.63296z" fill="#C5E2E2" p-id="2092"></path><path d="M565.06368 825.55392c0 16.27648-15.53408 29.47072-34.69312 29.47072H453.08928c-19.15904 0-34.69312-13.19424-34.69312-29.47072v-65.65376c0-16.27648 15.53408-29.47072 34.69312-29.47072h77.28128c19.15904 0 34.69312 13.19424 34.69312 29.47072v65.65376z" fill="#EFBDA5" p-id="2093"></path><path d="M701.9008 685.13792c0 55.78752-45.22496 101.0176-101.01248 101.0176H375.8592c-55.78752 0-101.0176-45.22496-101.0176-101.0176v-225.024c0-55.78752 45.22496-101.0176 101.0176-101.0176h225.02912c55.78752 0 101.01248 45.22496 101.01248 101.0176v225.024z" fill="#EFC8AC" p-id="2094"></path><path d="M375.00928 587.8784m-60.53888 0a60.53888 60.53888 0 1 0 121.07776 0 60.53888 60.53888 0 1 0-121.07776 0Z" fill="#EAC3A9" p-id="2095"></path><path d="M599.22944 571.10528m-60.53888 0a60.53888 60.53888 0 1 0 121.07776 0 60.53888 60.53888 0 1 0-121.07776 0Z" fill="#E7C1A7" p-id="2096"></path><path d="M635.29984 291.6608c-3.83488 0-7.56736 0.41472-11.23328 1.05472-24.73984-23.20384-65.74592-38.38976-112.18432-38.38976-16.34304 0-32.01024 1.88928-46.5408 5.33504-12.06784-11.04896-27.76064-17.78176-44.96896-17.78176-36.0448 0-65.57184 29.34784-68.54656 66.69824a65.37216 65.37216 0 0 0-10.368-0.91648c-38.02112 0-68.84352 32.63488-68.84352 72.89344s30.8224 72.89344 68.84352 72.89344c30.98624 0 57.17504-21.67808 65.81248-51.48672 25.10336 19.51744 62.6432 31.92832 104.61696 31.92832 28.57472 0 55.0912-5.75488 77.03552-15.58016 12.24192 11.84768 28.48768 19.13344 46.37696 19.13344 38.02112 0 68.84352-32.63488 68.84352-72.89344s-30.8224-72.88832-68.84352-72.88832z" fill="#513B21" p-id="2097"></path><path d="M402.62656 484.29568a11.008 11.008 0 0 1-8.79616 12.84096l-38.94784 7.27552a11.008 11.008 0 0 1-4.0448-21.63712l38.94784-7.27552a11.008 11.008 0 0 1 12.84096 8.79616zM630.62016 484.44416a11.008 11.008 0 0 1-11.008 11.008h-39.62368a11.008 11.008 0 1 1 0-22.016h39.62368a11.008 11.008 0 0 1 11.008 11.008z" fill="#B4947A" p-id="2098"></path><path d="M595.6096 619.89888c-32.77312 0-59.43808-26.66496-59.43808-59.43808s26.65984-59.43808 59.43808-59.43808c32.77312 0 59.43808 26.66496 59.43808 59.43808s-26.66496 59.43808-59.43808 59.43808z m0-105.66656c-25.49248 0-46.22848 20.736-46.22848 46.22848s20.736 46.22848 46.22848 46.22848 46.22848-20.736 46.22848-46.22848-20.736-46.22848-46.22848-46.22848zM375.2704 640.86528c-32.77312 0-59.43808-26.66496-59.43808-59.43808s26.65984-59.43808 59.43808-59.43808c32.77312 0 59.43808 26.66496 59.43808 59.43808-0.00512 32.77824-26.66496 59.43808-59.43808 59.43808z m0-105.66144c-25.49248 0-46.22848 20.736-46.22848 46.22848 0 25.48736 20.736 46.22848 46.22848 46.22848s46.22848-20.736 46.22848-46.22848-20.736-46.22848-46.22848-46.22848z" fill="#513B21" p-id="2099"></path><path d="M393.20064 570.10176m-19.49184 0a19.49184 19.49184 0 1 0 38.98368 0 19.49184 19.49184 0 1 0-38.98368 0Z" fill="" p-id="2100"></path><path d="M397.28128 563.81952m-5.82656 0a5.82656 5.82656 0 1 0 11.65312 0 5.82656 5.82656 0 1 0-11.65312 0Z" fill="#FFFFFF" p-id="2101"></path><path d="M607.08352 539.06944m-19.49184 0a19.49184 19.49184 0 1 0 38.98368 0 19.49184 19.49184 0 1 0-38.98368 0Z" fill="" p-id="2102"></path><path d="M611.16416 532.7872m-5.82656 0a5.82656 5.82656 0 1 0 11.65312 0 5.82656 5.82656 0 1 0-11.65312 0Z" fill="#FFFFFF" p-id="2103"></path><path d="M519.92576 634.26048c0 17.42336-14.12608 24.064-31.55456 24.064-17.42336 0-31.55456-6.64064-31.55456-24.064l8.73472-85.12c0-17.42336 5.39136-31.55456 22.81472-31.55456 17.42336 0 25.31328 14.12608 25.31328 31.55456l6.2464 85.12z" fill="#C99C83" p-id="2104"></path><path d="M542.69952 553.92256c0.1792 4.43904-2.87232 8.17152-6.81984 8.33536l-107.776 4.40832c-3.94752 0.16384-7.296-3.30752-7.4752-7.75168-0.1792-4.43904 2.87232-8.17152 6.81984-8.33536l107.776-4.40832c3.94752-0.15872 7.296 3.30752 7.4752 7.75168zM545.57184 675.29216c-10.96192-10.37312-18.98496-8.75008-18.98496-8.75008l-36.9664 2.78528-2.5088 0.18944-36.9664 2.78528s-8.17664-0.40448-17.4592 11.4944c-9.28256 11.89888-15.09376 42.87488-14.17728 55.01952 0.91648 12.14464 38.00064 12.3136 52.08064 2.18624 12.21632-8.79104 18.18624-20.25472 20.80256-31.43168 4.26496 10.65472 11.8784 21.0944 25.27744 27.96032 15.4368 7.90528 52.08064 2.18624 51.16416-9.96352-0.91648-12.14976-11.29984-41.90208-22.26176-52.2752z" fill="#513B21" p-id="2105"></path><path d="M858.8544 633.9328c-4.34688 0-8.1664 2.2272-10.40384 5.60128v-12.13952a12.48256 12.48256 0 0 0-24.71424-2.49344 12.40576 12.40576 0 0 0-8.576-3.44576 12.48256 12.48256 0 0 0-12.48256 12.48256v11.264a12.39552 12.39552 0 0 0-8.32512-3.24096 12.48256 12.48256 0 0 0-12.48256 12.48256v28.53376c0 4.64896 2.57024 8.6528 6.33856 10.8032 0.98816 18.65216 16.37888 33.4848 35.2768 33.4848h8.32512a35.37408 35.37408 0 0 0 34.65728-42.48064 12.41088 12.41088 0 0 0 4.87936-9.83552v-28.53376a12.4928 12.4928 0 0 0-12.4928-12.48256z" fill="#EFC8AC" p-id="2106"></path><path d="M419.87584 816.44032l-124.41088 1.69472s-95.90272 4.64896-119.31648 46.25408c-0.49152 0.87552-0.96256 1.80224-1.43872 2.7136a496.15872 496.15872 0 0 0 67.17952 53.67296c15.24224-14.4896 41.71264-16.55808 53.57568-16.70144v47.81056a479.40096 479.40096 0 0 0 143.1552 44.78976v-156.67712s-2.304-14.17728-6.43072-18.36032c-3.33824-3.3792-12.3136-5.1968-12.3136-5.1968zM795.40736 718.34112s-4.21888 61.9776-26.58816 79.19104c-27.20256 20.93568-67.10272 17.62816-67.10272 17.62816v-0.41472h-119.66976s-15.9744-0.8192-20.12672 3.44576c-4.15232 4.25984-3.3536 20.6592-3.3536 20.6592v159.53408h6.10304a478.70464 478.70464 0 0 0 137.05216-37.5552v-54.26176l67.0208-10.32704s50.36032-7.55712 69.42208-39.59808c26.5472-44.63104 29.25568-138.29632 29.25568-138.29632h-72.0128z" fill="#67797A" p-id="2107"></path><path d="M765.26592 602.3168l81.50528 122.99776a20.06016 20.06016 0 1 0 33.44384-22.15936l-81.50528-122.99776-33.44384 22.15936z" fill="#D8D6D6" p-id="2108"></path><path d="M803.95776 649.40544l48.12288 72.62208c3.61472 5.4528 11.86816 6.34368 18.432 1.99168 6.56896-4.352 8.96-12.29824 5.3504-17.75104l-38.272-57.75872-33.63328 0.896z" fill="#C53B2C" p-id="2109"></path><path d="M805.63712 684.11904c0 5.0944-5.44768 9.22624-12.16 9.22624-6.71744 0-12.16-4.13184-12.16-9.22624v-29.35808c0-5.0944 5.44768-9.22624 12.16-9.22624 6.71744 0 12.16 4.13184 12.16 9.22624v29.35808z" fill="#EFC8AC" p-id="2110"></path><path d="M772.92032 531.66592m-19.08224 0a19.08224 19.08224 0 1 0 38.16448 0 19.08224 19.08224 0 1 0-38.16448 0Z" fill="#B5B4B4" p-id="2111"></path><path d="M863.5136 460.16m-41.09824 0a41.09824 41.09824 0 1 0 82.19648 0 41.09824 41.09824 0 1 0-82.19648 0Z" fill="#D8D6D6" p-id="2112"></path></svg>